<svg width="1600" height="900" viewBox="0 0 1600 900" fill="none" xmlns="http://www.w3.org/2000/svg">
  <rect width="1600" height="900" fill="#f8f8f7"/>
  <rect x="44" y="44" width="84" height="812" rx="24" fill="#111111"/>
  <rect x="72" y="80" width="28" height="28" rx="8" fill="#f8f8f7"/>
  <rect x="72" y="160" width="28" height="28" rx="8" fill="#f8f8f7" opacity=".5"/>
  <rect x="72" y="226" width="28" height="28" rx="8" fill="#f8f8f7" opacity=".9"/>
  <rect x="178" y="74" width="380" height="34" rx="8" fill="#111111"/>
  <rect x="178" y="124" width="520" height="20" rx="6" fill="#777777"/>
  <rect x="1198" y="76" width="190" height="40" rx="12" fill="#111111"/>
  <rect x="178" y="178" width="420" height="52" rx="12" fill="#ffffff" stroke="#d9d9d4"/>
  <rect x="620" y="178" width="120" height="36" rx="10" fill="#111111"/>
  <rect x="754" y="178" width="120" height="36" rx="10" fill="#efefec"/>
  <rect x="178" y="278" width="390" height="292" rx="22" fill="#ffffff" stroke="#d9d9d4"/>
  <rect x="606" y="278" width="390" height="292" rx="22" fill="#ffffff" stroke="#d9d9d4"/>
  <rect x="1034" y="278" width="390" height="292" rx="22" fill="#ffffff" stroke="#d9d9d4"/>
  <rect x="198" y="298" width="350" height="208" rx="16" fill="#111111"/>
  <rect x="626" y="298" width="350" height="208" rx="16" fill="#777777"/>
  <rect x="1054" y="298" width="350" height="208" rx="16" fill="#111111" opacity=".88"/>
  <rect x="214" y="524" width="210" height="16" rx="5" fill="#111111"/>
  <rect x="214" y="548" width="150" height="12" rx="5" fill="#777777"/>
  <rect x="642" y="524" width="210" height="16" rx="5" fill="#111111"/>
  <rect x="642" y="548" width="150" height="12" rx="5" fill="#777777"/>
  <rect x="1070" y="524" width="210" height="16" rx="5" fill="#111111"/>
  <rect x="1070" y="548" width="150" height="12" rx="5" fill="#777777"/>
  <rect x="178" y="618" width="1246" height="168" rx="22" fill="#ffffff" stroke="#d9d9d4"/>
  <rect x="216" y="656" width="250" height="100" rx="14" fill="#efefec"/>
  <rect x="494" y="656" width="250" height="100" rx="14" fill="#efefec"/>
  <rect x="772" y="656" width="250" height="100" rx="14" fill="#efefec"/>
  <rect x="1050" y="656" width="250" height="100" rx="14" fill="#efefec"/>
  <text x="800" y="850" fill="#111111" font-family="Arial, sans-serif" font-size="28" font-weight="700" text-anchor="middle">Architecture Portfolio Workspace Screenshot Placeholder</text>
</svg>
