<svg width="1600" height="900" viewBox="0 0 1600 900" fill="none" xmlns="http://www.w3.org/2000/svg">
  <rect width="1600" height="900" fill="#f8f8f7"/>
  <rect x="76" y="70" width="640" height="760" rx="26" fill="#ffffff" stroke="#d9d9d4"/>
  <rect x="118" y="118" width="264" height="30" rx="8" fill="#111111"/>
  <rect x="118" y="172" width="538" height="54" rx="10" fill="#efefec"/>
  <rect x="118" y="250" width="538" height="54" rx="10" fill="#efefec"/>
  <rect x="118" y="350" width="538" height="216" rx="14" fill="#ffffff" stroke="#d9d9d4"/>
  <line x1="118" y1="412" x2="656" y2="412" stroke="#d9d9d4"/>
  <line x1="118" y1="474" x2="656" y2="474" stroke="#d9d9d4"/>
  <rect x="156" y="376" width="220" height="16" rx="5" fill="#111111"/>
  <rect x="156" y="438" width="170" height="16" rx="5" fill="#777777"/>
  <rect x="156" y="500" width="210" height="16" rx="5" fill="#777777"/>
  <rect x="118" y="604" width="260" height="52" rx="10" fill="#efefec"/>
  <rect x="396" y="604" width="260" height="52" rx="10" fill="#efefec"/>
  <rect x="396" y="702" width="260" height="54" rx="12" fill="#111111"/>
  <rect x="846" y="70" width="604" height="760" rx="18" fill="#ffffff" stroke="#111111" stroke-width="2"/>
  <rect x="898" y="120" width="250" height="30" rx="6" fill="#111111"/>
  <rect x="1206" y="120" width="178" height="22" rx="6" fill="#777777"/>
  <line x1="898" y1="210" x2="1398" y2="210" stroke="#111111" stroke-width="2"/>
  <rect x="898" y="250" width="180" height="18" rx="5" fill="#111111"/>
  <rect x="1178" y="250" width="180" height="18" rx="5" fill="#111111"/>
  <line x1="898" y1="330" x2="1398" y2="330" stroke="#111111"/>
  <line x1="898" y1="376" x2="1398" y2="376" stroke="#d9d9d4"/>
  <line x1="898" y1="422" x2="1398" y2="422" stroke="#d9d9d4"/>
  <rect x="928" y="350" width="190" height="14" rx="5" fill="#111111"/>
  <rect x="928" y="396" width="160" height="14" rx="5" fill="#777777"/>
  <rect x="1168" y="520" width="230" height="150" rx="10" fill="#f8f8f7" stroke="#d9d9d4"/>
  <line x1="1192" y1="612" x2="1374" y2="612" stroke="#111111" stroke-dasharray="6 6"/>
  <line x1="1192" y1="650" x2="1374" y2="650" stroke="#111111" stroke-dasharray="6 6"/>
  <line x1="898" y1="710" x2="1398" y2="710" stroke="#111111"/>
  <rect x="898" y="736" width="220" height="16" rx="5" fill="#111111"/>
  <rect x="1308" y="726" width="68" height="68" rx="8" fill="#111111"/>
  <text x="800" y="860" fill="#111111" font-family="Arial, sans-serif" font-size="28" font-weight="700" text-anchor="middle">Billing Workflow + Invoice PDF Screenshot Placeholder</text>
</svg>
