<svg width="1600" height="900" viewBox="0 0 1600 900" fill="none" xmlns="http://www.w3.org/2000/svg">
  <rect width="1600" height="900" fill="#f8f8f7"/>
  <rect x="44" y="44" width="84" height="812" rx="24" fill="#111111"/>
  <rect x="72" y="80" width="28" height="28" rx="8" fill="#f8f8f7"/>
  <rect x="72" y="160" width="28" height="28" rx="8" fill="#f8f8f7" opacity=".9"/>
  <rect x="72" y="226" width="28" height="28" rx="8" fill="#f8f8f7" opacity=".5"/>
  <rect x="72" y="292" width="28" height="28" rx="8" fill="#f8f8f7" opacity=".5"/>
  <rect x="72" y="358" width="28" height="28" rx="8" fill="#f8f8f7" opacity=".5"/>
  <rect x="172" y="74" width="360" height="34" rx="8" fill="#111111"/>
  <rect x="172" y="124" width="520" height="20" rx="6" fill="#777777"/>
  <rect x="172" y="190" width="740" height="318" rx="22" fill="#ffffff" stroke="#d9d9d4"/>
  <rect x="946" y="190" width="286" height="318" rx="22" fill="#ffffff" stroke="#d9d9d4"/>
  <rect x="1266" y="190" width="286" height="318" rx="22" fill="#ffffff" stroke="#d9d9d4"/>
  <rect x="222" y="428" width="42" height="44" rx="8" fill="#111111"/>
  <rect x="302" y="376" width="42" height="96" rx="8" fill="#111111"/>
  <rect x="382" y="322" width="42" height="150" rx="8" fill="#111111"/>
  <rect x="462" y="282" width="42" height="190" rx="8" fill="#111111"/>
  <rect x="542" y="334" width="42" height="138" rx="8" fill="#111111"/>
  <rect x="622" y="250" width="42" height="222" rx="8" fill="#111111"/>
  <rect x="702" y="306" width="42" height="166" rx="8" fill="#111111"/>
  <circle cx="1089" cy="350" r="86" stroke="#111111" stroke-width="34"/>
  <circle cx="1409" cy="350" r="86" stroke="#111111" stroke-width="34" opacity=".35"/>
  <rect x="172" y="548" width="438" height="212" rx="22" fill="#ffffff" stroke="#d9d9d4"/>
  <rect x="642" y="548" width="438" height="212" rx="22" fill="#ffffff" stroke="#d9d9d4"/>
  <rect x="1112" y="548" width="438" height="212" rx="22" fill="#ffffff" stroke="#d9d9d4"/>
  <rect x="214" y="600" width="280" height="18" rx="6" fill="#111111"/>
  <rect x="214" y="640" width="330" height="14" rx="5" fill="#777777"/>
  <rect x="684" y="600" width="260" height="18" rx="6" fill="#111111"/>
  <rect x="684" y="640" width="330" height="14" rx="5" fill="#777777"/>
  <rect x="1154" y="600" width="260" height="18" rx="6" fill="#111111"/>
  <rect x="1154" y="640" width="330" height="14" rx="5" fill="#777777"/>
  <text x="800" y="830" fill="#111111" font-family="Arial, sans-serif" font-size="28" font-weight="700" text-anchor="middle">ERP Overview Dashboard Screenshot Placeholder</text>
</svg>
